<?xml version="1.0" standalone="no"?>
<!DOCTYPE svg PUBLIC "-//W3C//DTD SVG 20010904//EN"
 "http://www.w3.org/TR/2001/REC-SVG-20010904/DTD/svg10.dtd">
<svg version="1.0" xmlns="http://www.w3.org/2000/svg"
 width="789.000000pt" height="789.000000pt" viewBox="0 0 789.000000 789.000000"
 preserveAspectRatio="xMidYMid meet">
<metadata>
Created by potrace 1.11, written by Peter Selinger 2001-2013
</metadata>
<g transform="translate(0.000000,789.000000) scale(0.100000,-0.100000)"
fill="#000000" stroke="none">
<path d="M2600 7330 c-97 -7 -202 -23 -325 -50 -68 -14 -284 -79 -330 -99 -11
-5 -40 -17 -65 -26 -93 -37 -277 -125 -345 -165 -27 -16 -69 -39 -92 -51 -24
-12 -43 -26 -43 -31 0 -4 -4 -8 -9 -8 -14 0 -123 -74 -143 -96 -26 -30 -102
-183 -163 -332 -32 -75 -63 -150 -70 -167 -11 -25 -62 -176 -104 -310 -13 -40
-66 -256 -81 -327 -47 -232 -60 -562 -29 -748 42 -256 78 -340 197 -457 45
-46 89 -83 97 -83 7 0 15 -4 17 -8 3 -9 61 -51 93 -68 124 -67 203 -106 270
-133 44 -18 89 -36 100 -41 11 -5 74 -27 140 -48 113 -38 174 -56 270 -82 22
-6 65 -18 95 -26 30 -8 73 -19 95 -24 231 -51 238 -52 355 -74 209 -39 329
-57 520 -77 311 -32 420 -87 420 -213 0 -133 -141 -316 -293 -380 -89 -37
-163 -48 -294 -43 -132 5 -210 16 -298 44 -97 30 -130 41 -160 53 -16 7 -39
16 -50 20 -131 50 -380 194 -515 299 -99 76 -269 243 -330 325 -25 33 -47 53
-52 48 -12 -12 -26 -92 -50 -297 -21 -176 -21 -183 -5 -335 10 -85 26 -180 36
-210 104 -309 269 -443 639 -519 69 -14 285 -14 354 0 174 35 205 41 228 49
14 5 52 16 85 25 86 24 157 46 180 56 11 5 38 13 60 18 22 5 74 18 115 29 41
11 107 26 145 33 90 18 351 18 425 1 96 -22 164 -46 203 -69 81 -50 35 -120
-133 -202 -116 -56 -176 -81 -193 -81 -7 0 -17 -4 -23 -8 -5 -5 -38 -17 -74
-26 -36 -10 -76 -22 -90 -27 -119 -41 -480 -61 -700 -39 -86 9 -232 32 -305
49 -22 5 -68 15 -102 23 -34 7 -65 17 -69 21 -4 4 -15 7 -24 7 -10 0 -53 12
-96 26 -108 35 -144 44 -144 33 0 -25 49 -145 106 -257 106 -213 229 -384 392
-550 180 -182 303 -278 479 -373 l56 -30 71 47 c39 27 118 82 176 123 205 147
344 241 410 277 19 10 37 21 40 24 9 9 173 62 253 81 98 24 199 25 232 3 46
-30 29 -88 -60 -209 -156 -211 -355 -358 -562 -415 -128 -35 -368 -24 -460 22
-31 15 -39 4 -22 -29 23 -44 163 -177 236 -225 187 -124 307 -166 568 -198
230 -29 560 50 862 206 349 181 583 406 678 654 10 25 21 54 25 65 15 36 39
169 43 235 5 77 -5 222 -22 305 -28 138 -118 356 -205 497 -70 115 16 211 132
148 20 -11 53 -30 72 -42 50 -30 230 -108 249 -108 10 0 21 -4 27 -9 5 -4 41
-15 79 -24 39 -9 90 -21 115 -27 25 -6 108 -14 185 -17 112 -4 153 -2 205 11
183 46 377 177 515 347 178 218 295 463 396 829 99 362 67 742 -84 990 -52 85
-90 135 -147 190 -50 49 -157 126 -165 119 -2 -3 0 -48 6 -100 19 -161 -8
-388 -61 -514 -64 -153 -125 -250 -219 -349 -89 -93 -241 -206 -276 -206 l-28
0 7 67 c4 37 11 72 15 78 5 5 12 26 16 45 4 19 11 41 16 50 4 8 22 51 39 95
52 134 99 233 276 590 74 149 134 277 134 285 0 21 -116 204 -192 303 -148
195 -338 370 -528 486 -145 89 -235 129 -408 181 -49 15 -71 5 -54 -27 20 -36
88 -237 117 -343 9 -36 21 -76 26 -90 8 -25 16 -65 46 -225 24 -126 29 -525 8
-634 -18 -97 -42 -187 -56 -213 -5 -10 -9 -23 -9 -29 0 -20 -81 -173 -138
-258 -90 -137 -168 -221 -207 -221 -20 0 -25 6 -30 44 -7 42 7 166 41 361 26
153 31 187 43 285 7 52 16 124 22 160 35 239 51 926 25 1077 -33 184 -109 328
-223 419 -26 22 -50 41 -53 45 -10 10 -106 65 -145 83 -73 32 -80 34 -135 49
-129 35 -180 42 -325 42 -145 0 -206 -8 -343 -42 -59 -15 -91 -33 -58 -33 29
0 142 -54 185 -89 129 -104 254 -307 331 -541 23 -68 52 -176 65 -245 5 -22
10 -47 12 -55 2 -8 11 -88 20 -176 15 -140 15 -178 4 -285 -26 -257 -86 -420
-200 -541 -47 -51 -112 -88 -153 -88 -14 0 -40 10 -58 23 -35 23 -98 127 -99
163 -1 11 -5 24 -10 30 -12 13 -29 102 -60 319 -15 103 -31 408 -41 760 -8
295 -15 378 -41 470 -111 393 -298 635 -619 802 -41 22 -97 47 -125 57 -27 10
-59 22 -70 27 -115 51 -468 86 -705 69z m-170 -1742 c72 -66 257 -237 295
-272 83 -76 260 -240 335 -311 178 -167 343 -320 350 -325 4 -3 63 -57 131
-121 68 -63 194 -180 279 -259 85 -79 182 -169 215 -199 33 -31 119 -110 190
-176 72 -66 137 -127 145 -135 16 -15 54 -51 275 -255 71 -66 170 -158 220
-205 50 -47 116 -109 148 -138 l57 -54 0 -74 c0 -41 -3 -74 -7 -74 -9 0 -209
194 -588 569 -132 130 -494 486 -805 791 -311 305 -727 714 -924 910 -198 195
-366 361 -374 368 -7 6 -10 12 -5 12 4 0 33 -24 63 -52z m2409 -1263 c-4 -137
-10 -266 -15 -285 -18 -83 -91 -152 -163 -154 -35 -1 -36 0 -39 40 -3 36 61
260 97 339 5 11 28 72 51 135 43 115 71 183 74 178 1 -2 -1 -115 -5 -253z
m1257 -132 c-4 -21 -11 -49 -15 -63 -5 -14 -16 -54 -26 -90 -9 -36 -20 -72
-25 -80 -4 -9 -11 -31 -15 -50 -4 -19 -11 -41 -15 -50 -4 -8 -22 -53 -39 -100
-87 -230 -170 -354 -296 -439 -64 -43 -117 -64 -163 -65 -59 -1 -92 37 -92
107 0 76 37 121 206 248 51 39 106 86 121 103 52 61 71 84 117 143 26 32 50
63 54 68 29 39 145 221 164 258 13 26 25 47 27 47 2 0 0 -17 -3 -37z"/>
</g>
</svg>
